<?xml version="1.0" encoding="UTF-8" standalone="no"?>
<svg
   xmlns:dc="http://purl.org/dc/elements/1.1/"
   xmlns:cc="http://creativecommons.org/ns#"
   xmlns:rdf="http://www.w3.org/1999/02/22-rdf-syntax-ns#"
   xmlns:svg="http://www.w3.org/2000/svg"
   xmlns="http://www.w3.org/2000/svg"
   xmlns:sodipodi="http://sodipodi.sourceforge.net/DTD/sodipodi-0.dtd"
   xmlns:inkscape="http://www.inkscape.org/namespaces/inkscape"
   width="240.35582"
   height="74.223267"
   viewBox="0 0 240.35582 74.223267"
   version="1.1"
   xml:space="preserve"
   style="clip-rule:evenodd;fill-rule:evenodd;stroke-linejoin:round;stroke-miterlimit:2"
   id="svg20"
   sodipodi:docname="koinos-logo.svg"
   inkscape:version="0.92.3 (2405546, 2018-03-11)"><metadata
   id="metadata26"><rdf:RDF><cc:Work
       rdf:about=""><dc:format>image/svg+xml</dc:format><dc:type
         rdf:resource="http://purl.org/dc/dcmitype/StillImage" /><dc:title></dc:title></cc:Work></rdf:RDF></metadata><defs
   id="defs24">
        
        
    
            
        
            
        
                
            
                
            
                    
                
                        
                    </defs><sodipodi:namedview
   pagecolor="#ffffff"
   bordercolor="#666666"
   borderopacity="1"
   objecttolerance="10"
   gridtolerance="10"
   guidetolerance="10"
   inkscape:pageopacity="0"
   inkscape:pageshadow="2"
   inkscape:window-width="1920"
   inkscape:window-height="1001"
   id="namedview22"
   showgrid="false"
   fit-margin-top="0"
   fit-margin-left="0"
   fit-margin-right="0"
   fit-margin-bottom="0"
   inkscape:zoom="3.4490532"
   inkscape:cx="121.74803"
   inkscape:cy="0.62332768"
   inkscape:window-x="-9"
   inkscape:window-y="-9"
   inkscape:window-maximized="1"
   inkscape:current-layer="svg20" />
    <path
   inkscape:connector-curvature="0"
   id="path2"
   style="fill:#999999;stroke:#ffffff;stroke-width:1.00014484px"
   d="m 3.8074271,21.750343 c 0,0 26.4083079,-15.2474578 26.4083079,-15.2474578 L 56.624042,21.750343 c 0.07332,0.04201 0.118581,0.120613 0.118581,0.204636 v 30.356684 c 0,0.08538 -0.04526,0.162625 -0.118581,0.205992 l -26.289726,15.178342 -0.0034,0.0014 -0.0035,0.0014 -0.0035,0.0027 -0.0035,0.0014 -0.0035,0.0014 -0.0035,0.0027 -0.0037,0.0014 -0.0035,0.0014 -0.0037,0.0014 -0.0037,0.0014 -0.0037,0.0014 -0.0037,0.0014 -0.0037,0.0014 -0.0038,0.0014 -0.0037,0.0014 h -0.0038 l -0.0037,0.0014 -0.0038,0.0014 h -0.0038 l -0.0038,0.0014 h -0.0038 l -0.0038,0.0014 h -0.0038 l -0.0038,0.0014 h -0.0038 -0.0045 l -0.0037,0.0014 h -0.0041 -0.005 -0.0039 -0.0038 -0.0038 -0.0038 -0.0045 -0.0041 -0.005 l -0.0038,-0.0014 h -0.0038 -0.0038 l -0.0038,-0.0014 h -0.0038 l -0.0038,-0.0014 h -0.0038 l -0.0038,-0.0014 h -0.0038 l -0.0038,-0.0014 -0.0037,-0.0014 h -0.0038 l -0.0037,-0.0014 -0.0038,-0.0014 -0.0037,-0.0014 -0.0037,-0.0014 -0.0037,-0.0014 -0.0037,-0.0014 -0.0037,-0.0014 -0.0035,-0.0014 -0.0037,-0.0014 -0.0035,-0.0027 -0.0035,-0.0014 -0.0035,-0.0014 -0.0035,-0.0027 -0.0035,-0.0014 -0.0034,-0.0014 c 0,0 -26.2897269,-15.178342 -26.2897269,-15.178342 -0.073317,-0.04337 -0.1185809,-0.120614 -0.1185809,-0.205992 V 21.954979 c 0,-0.08402 0.045264,-0.162625 0.1185809,-0.204636 z M 4.1631699,52.174787 29.978573,67.079377 V 50.280205 L 18.830205,43.844317 c -0.07345,-0.04337 -0.11858,-0.120614 -0.11858,-0.205992 V 30.765194 L 4.1631699,22.365608 Z M 41.719845,30.765194 V 43.775201 L 30.452896,50.280205 V 67.079377 L 56.268299,52.174787 V 22.365608 Z M 19.185948,43.501449 29.978573,49.7327 V 37.270197 L 19.185948,31.038946 Z M 41.245521,31.127034 30.452896,37.358286 V 49.7327 L 41.245521,43.501449 Z M 19.42311,30.628317 30.215735,36.859569 41.008359,30.628317 30.215735,24.397066 Z M 30.215735,23.849562 41.482683,30.354565 56.031138,21.954979 30.215735,7.0503896 4.4003317,21.954979 18.948786,30.354565 Z" />
<text
   xml:space="preserve"
   style="font-style:normal;font-weight:normal;font-size:40px;line-height:0.69999999;font-family:sans-serif;text-align:center;letter-spacing:0px;word-spacing:0px;text-anchor:middle;fill:#ffffff;fill-opacity:1;stroke:none"
   x="142.06796"
   y="34.724823"
   id="text4561"><tspan
     sodipodi:role="line"
     id="tspan4559"
     x="142.06796"
     y="34.724823">Koinos</tspan><tspan
     sodipodi:role="line"
     x="142.06796"
     y="62.724819"
     id="tspan4563"
     style="font-size:29.33333397px;line-height:0.69999999;fill:#ffffff">Mining Pool</tspan></text>
<rect
   style="opacity:0.58300003;fill:none;fill-opacity:1;stroke:none;stroke-width:8.00503922;stroke-miterlimit:4;stroke-dasharray:none;stroke-dashoffset:176.31495667;stroke-opacity:1"
   id="rect4565"
   width="240.35582"
   height="74.223267"
   x="0"
   y="0" /></svg>